<svg xmlns="http://www.w3.org/2000/svg" viewBox="0 0 1200 800" preserveAspectRatio="none">
                    <defs>
                        <linearGradient id="bgGrad" x1="0" y1="0" x2="1" y2="1">
                            <stop offset="0" stop-color="#d6e5cf"/><stop offset=".55" stop-color="#bfd8b5"/><stop offset="1" stop-color="#e7d7a5"/>
                        </linearGradient>
                        <pattern id="trees" width="46" height="46" patternUnits="userSpaceOnUse">
                            <circle cx="10" cy="12" r="7" fill="#7fb17a" opacity=".55"/>
                            <circle cx="30" cy="20" r="9" fill="#6da56d" opacity=".5"/>
                            <circle cx="18" cy="34" r="6" fill="#5f9864" opacity=".45"/>
                        </pattern>
                        <filter id="softShadow" x="-20%" y="-20%" width="140%" height="140%">
                            <feDropShadow dx="0" dy="10" stdDeviation="10" flood-color="#23362d" flood-opacity=".18"/>
                        </filter>
                    </defs>
                    <rect width="1200" height="800" fill="url(#bgGrad)"/>
                    <path d="M-20,98 C160,22 300,62 426,118 C596,194 690,104 842,62 C1016,14 1116,88 1230,40 L1230,-20 L-20,-20 Z" fill="url(#trees)" opacity=".82"/>
                    <path d="M-20,655 C160,592 256,640 398,690 C548,742 706,716 832,652 C986,574 1092,642 1230,596 L1230,820 L-20,820 Z" fill="url(#trees)" opacity=".62"/>
                    <path class="water" d="M852,246 C943,215 1046,236 1090,304 C1131,367 1102,446 1018,474 C920,508 831,478 796,410 C760,340 777,276 852,246 Z" opacity=".95"/>
                    <path class="water" d="M218,206 C300,163 398,194 410,274 C423,357 324,393 246,366 C178,342 151,242 218,206 Z" opacity=".65"/>
                    <path class="sand" d="M796,432 C880,500 1004,494 1088,452 C1098,506 1070,550 1014,578 C908,632 784,586 754,496 C748,474 762,451 796,432 Z" opacity=".8"/>
                    <path class="lawn" d="M452,170 C592,122 750,152 792,264 C834,376 734,488 590,486 C444,484 348,394 364,282 C372,226 402,188 452,170 Z" opacity=".78"/>
                    <path class="zone" d="M385 165 C555 110 745 140 806 282 C858 404 742 530 574 520 C407 510 314 398 344 270 C356 218 377 184 385 165 Z"/>
                    <path class="restricted" d="M96 462 C165 410 243 430 274 496 C296 548 250 608 172 618 C103 626 48 588 50 526 C52 498 67 476 96 462 Z"/>
                    <text x="103" y="526" font-size="18" font-weight="900" fill="#7d332e">Staff Only</text>
                    <text x="492" y="248" font-size="18" font-weight="900" fill="#496051">Main Lawn</text>
                    <text x="887" y="355" font-size="18" font-weight="900" fill="#326b74">Lake &amp; Water Zone</text>
                    <g id="basePathLayer"></g>
                    <g id="buildingsLayer">
                        <rect class="building" x="455" y="552" width="134" height="75" rx="11" filter="url(#softShadow)"/><rect class="roof" x="476" y="536" width="94" height="28" rx="8"/>
                        <rect class="building" x="605" y="564" width="124" height="56" rx="10" filter="url(#softShadow)"/><rect class="roof" x="628" y="548" width="76" height="25" rx="8"/>
                        <rect class="building" x="162" y="323" width="120" height="62" rx="10" filter="url(#softShadow)"/><rect class="roof" x="182" y="308" width="80" height="24" rx="7"/>
                        <rect class="building" x="392" y="332" width="90" height="58" rx="10" filter="url(#softShadow)"/><rect class="roof" x="408" y="318" width="58" height="22" rx="7"/>
                        <rect class="building" x="844" y="164" width="96" height="58" rx="10" filter="url(#softShadow)"/><rect class="roof" x="860" y="150" width="64" height="22" rx="7"/>
                        <rect class="building" x="782" y="594" width="106" height="58" rx="10" filter="url(#softShadow)"/><rect class="roof" x="800" y="580" width="70" height="22" rx="7"/>
                        <rect class="building" x="985" y="534" width="120" height="64" rx="10" filter="url(#softShadow)"/><rect class="roof" x="1005" y="518" width="78" height="25" rx="7"/>
                    </g>
                    <text class="road-name" x="442" y="671" transform="rotate(-3 442 671)">Garden Walk</text>
                    <text class="road-name" x="766" y="533" transform="rotate(22 766 533)">Lake Road</text>
                    <text class="road-name" x="238" y="431" transform="rotate(-45 238 431)">Reception Drive</text>
                </svg>